<?xml version="1.0" encoding="utf-8"?>
<!-- Generator: Adobe Illustrator 26.0.2, SVG Export Plug-In . SVG Version: 6.00 Build 0)  -->
<svg version="1.1" id="Layer_1" xmlns="http://www.w3.org/2000/svg" xmlns:xlink="http://www.w3.org/1999/xlink" x="0px" y="0px"
	 viewBox="0 0 128 128" style="enable-background:new 0 0 128 128;" xml:space="preserve">
<style type="text/css">
	.st0{fill:#E4572E;}
</style>
<g>
	<path class="st0" d="M29.49,127.97c-3.38,0-6.1-1.06-8.15-3.17c-2.05-2.11-3.08-4.74-3.08-7.88V12.22c0-3.14,1.09-5.77,3.26-7.88
		c2.17-2.11,4.95-3.17,8.33-3.17c3.38,0,6.07,1.06,8.06,3.17c1.99,2.11,2.99,4.74,2.99,7.88v104.7c0,3.14-1.03,5.77-3.08,7.88
		C35.77,126.91,32.99,127.97,29.49,127.97z M107.75,0.26c2.9,0,5.28,1.18,7.16,3.53c1.87,2.35,2.81,4.74,2.81,7.16
		c0,2.54-1.09,4.89-3.26,7.06l-75.9,72.64l-0.91-25.9L98.87,4.43C101.65,1.65,104.6,0.26,107.75,0.26z M105.57,127.97
		c-3.38,0-6.1-1.39-8.15-4.17L55.58,68.74l16.48-16.85l43.29,57.24c1.69,2.3,2.54,4.77,2.54,7.43c0,3.38-1.27,6.13-3.8,8.24
		C111.55,126.91,108.71,127.97,105.57,127.97z"/>
</g>
<g>
</g>
<g>
</g>
<g>
</g>
<g>
</g>
<g>
</g>
<g>
</g>
<g>
</g>
<g>
</g>
<g>
</g>
<g>
</g>
<g>
</g>
<g>
</g>
<g>
</g>
<g>
</g>
<g>
</g>
</svg>
